<svg xmlns="http://www.w3.org/2000/svg" xmlns:xlink="http://www.w3.org/1999/xlink" width="500" zoomAndPan="magnify" viewBox="0 0 375 374.999991" height="500" preserveAspectRatio="xMidYMid meet" version="1.0"><defs><clipPath id="id1"><path d="M 37 92 L 154 92 L 154 206 L 37 206 Z M 37 92 " clip-rule="nonzero"/></clipPath><clipPath id="id2"><path d="M 14.265625 123.160156 L 113.367188 60.851562 L 172.777344 155.34375 L 73.675781 217.652344 Z M 14.265625 123.160156 " clip-rule="nonzero"/></clipPath><clipPath id="id3"><path d="M 14.265625 123.160156 L 113.367188 60.851562 L 172.777344 155.34375 L 73.675781 217.652344 Z M 14.265625 123.160156 " clip-rule="nonzero"/></clipPath><clipPath id="id4"><path d="M 36 92 L 154 92 L 154 206 L 36 206 Z M 36 92 " clip-rule="nonzero"/></clipPath><clipPath id="id5"><path d="M 14.265625 123.160156 L 113.367188 60.851562 L 172.777344 155.34375 L 73.675781 217.652344 Z M 14.265625 123.160156 " clip-rule="nonzero"/></clipPath><clipPath id="id6"><path d="M 14.265625 123.160156 L 113.367188 60.851562 L 172.777344 155.34375 L 73.675781 217.652344 Z M 14.265625 123.160156 " clip-rule="nonzero"/></clipPath></defs><path fill="#6ad5ef" d="M 353.917969 156.835938 C 360.472656 140.464844 352.484375 121.703125 336.132812 115.097656 C 319.730469 108.445312 300.890625 116.4375 294.289062 132.855469 L 246.472656 251.175781 L 246.425781 251.316406 C 239.871094 267.6875 247.859375 286.449219 264.210938 293.054688 C 280.613281 299.707031 299.453125 291.714844 306.054688 275.296875 L 353.871094 156.976562 C 353.917969 156.929688 353.917969 156.882812 353.917969 156.835938 Z M 111.335938 265.726562 C 139.023438 313.972656 187.75 312.25 212.710938 250.457031 L 250.488281 156.976562 L 250.535156 156.835938 C 257.039062 140.464844 249.054688 121.703125 232.746094 115.097656 C 216.347656 108.445312 197.503906 116.4375 190.859375 132.855469 L 183.925781 149.988281 L 158.34375 213.3125 L 150.308594 233.273438 C 144.332031 248.015625 128.214844 254.140625 121.28125 237.675781 L 113.25 218.484375 C 106.316406 202.019531 107.082031 195.746094 113.394531 180.046875 C 117.027344 171.097656 120.613281 162.148438 124.246094 153.195312 C 135.4375 125.484375 107.03125 105.761719 83.984375 115.097656 C 67.628906 121.703125 59.644531 140.464844 66.195312 156.835938 L 66.242188 156.976562 L 94.457031 226.859375 L 104.117188 250.695312 C 106.316406 256.152344 108.753906 261.128906 111.335938 265.726562 Z M 111.335938 265.726562 " fill-opacity="1" fill-rule="evenodd"/><g clip-path="url(#id1)"><g clip-path="url(#id2)"><g clip-path="url(#id3)"><path fill="#6ad5ef" d="M 64.148438 92.25 L 98.898438 113.632812 L 136.175781 97.128906 L 126.628906 136.808594 L 153.894531 167.179688 L 113.230469 170.316406 L 92.761719 205.613281 L 77.1875 167.894531 L 37.3125 159.289062 L 68.34375 132.847656 Z M 64.148438 92.25 " fill-opacity="1" fill-rule="nonzero"/></g></g></g><g clip-path="url(#id4)"><g clip-path="url(#id5)"><g clip-path="url(#id6)"><path fill="#6ad5ef" d="M 63.722656 92.101562 L 98.492188 113.472656 L 135.773438 96.96875 L 126.226562 136.648438 L 153.46875 167.03125 L 112.808594 170.167969 L 92.359375 205.453125 L 76.78125 167.734375 L 36.886719 159.140625 L 67.917969 132.699219 Z M 63.722656 92.101562 " fill-opacity="1" fill-rule="nonzero"/><path fill="#6ad5ef" d="M 63.722656 92.101562 L 98.492188 113.472656 L 135.773438 96.96875 L 126.226562 136.648438 L 153.46875 167.03125 L 112.808594 170.167969 L 92.359375 205.453125 L 76.78125 167.734375 L 36.886719 159.140625 L 67.917969 132.699219 Z M 63.722656 92.101562 " fill-opacity="1" fill-rule="nonzero"/><path fill="#6ad5ef" d="M 63.722656 92.101562 L 98.492188 113.472656 L 135.773438 96.96875 L 126.226562 136.648438 L 153.46875 167.03125 L 112.808594 170.167969 L 92.359375 205.453125 L 76.78125 167.734375 L 36.886719 159.140625 L 67.917969 132.699219 Z M 63.722656 92.101562 " fill-opacity="1" fill-rule="nonzero"/></g></g></g></svg>