<?xml version="1.0" standalone="no"?>
<!DOCTYPE svg PUBLIC "-//W3C//DTD SVG 20010904//EN"
 "http://www.w3.org/TR/2001/REC-SVG-20010904/DTD/svg10.dtd">
<svg version="1.0" xmlns="http://www.w3.org/2000/svg"
 width="1000.000000pt" height="243.000000pt" viewBox="0 0 1000.000000 243.000000"
 preserveAspectRatio="xMidYMid meet">

<g transform="translate(0.000000,243.000000) scale(0.100000,-0.100000)"
fill="#000000" stroke="none">
<path d="M10 2086 c0 -7 886 -1530 927 -1595 84 -131 204 -214 313 -215 152
-2 324 163 485 467 l44 83 -87 -23 c-99 -25 -131 -27 -186 -12 -82 23 -120 78
-446 643 -216 374 -319 543 -351 577 -72 74 -100 79 -426 79 -150 0 -273 -2
-273 -4z"/>
<path d="M1103 2048 c705 -1216 896 -1542 927 -1583 93 -125 189 -188 289
-189 112 -1 243 91 359 253 44 61 172 279 172 293 0 3 -27 -2 -61 -12 -176
-54 -266 -28 -348 99 -20 31 -164 279 -321 551 -209 362 -298 507 -335 546
-76 79 -100 84 -433 84 l-274 0 25 -42z"/>
<path d="M2285 1928 c52 -90 128 -220 167 -290 l73 -127 308 -1 c280 0 313 2
363 20 113 39 197 128 281 295 50 99 113 242 113 256 0 5 -285 9 -700 9 l-699
0 94 -162z"/>
<path d="M5049 1797 c-108 -73 -56 -221 78 -219 75 1 126 51 125 121 -2 101
-116 157 -203 98z"/>
<path d="M6250 1160 l0 -590 120 0 120 0 0 273 c1 284 6 324 47 369 30 33 74
51 129 51 65 0 108 -25 134 -78 19 -38 20 -63 20 -328 l0 -287 126 0 125 0 -3
333 -3 332 -26 55 c-53 114 -128 167 -248 177 -124 10 -231 -42 -281 -136
l-19 -36 -1 228 0 227 -120 0 -120 0 0 -590z"/>
<path d="M7210 1160 l0 -590 120 0 120 0 0 590 0 590 -120 0 -120 0 0 -590z"/>
<path d="M5613 1455 c-80 -22 -116 -40 -157 -75 -75 -66 -105 -178 -71 -266
39 -103 111 -146 315 -189 137 -29 183 -49 188 -84 7 -46 -7 -72 -51 -91 -87
-40 -202 -13 -234 55 l-17 36 -115 -7 c-64 -4 -118 -8 -120 -10 -10 -9 24 -94
54 -136 116 -159 486 -181 649 -37 85 75 113 198 66 294 -38 78 -106 112 -308
156 -142 30 -185 50 -190 89 -10 65 38 103 130 103 65 0 98 -17 133 -70 l20
-31 100 5 c55 3 104 9 109 14 14 13 -9 79 -44 127 -59 82 -155 123 -305 128
-68 3 -117 -1 -152 -11z"/>
<path d="M7890 1459 c-70 -14 -163 -65 -210 -115 -159 -173 -157 -508 5 -669
155 -155 449 -162 610 -14 93 85 135 195 135 347 0 107 -14 171 -53 248 -82
162 -278 244 -487 203z m191 -202 c40 -27 75 -76 89 -126 15 -54 12 -190 -5
-249 -53 -177 -269 -184 -330 -12 -53 149 -10 345 86 393 50 24 119 22 160 -6z"/>
<path d="M8915 1451 c-47 -22 -85 -60 -113 -116 l-21 -40 -1 83 0 82 -120 0
-120 0 0 -445 0 -445 125 0 125 0 0 275 c0 255 2 279 20 314 38 76 109 108
212 96 l59 -7 -3 108 -3 109 -60 3 c-42 1 -72 -4 -100 -17z"/>
<path d="M9440 1459 c-143 -28 -265 -149 -306 -303 -18 -66 -18 -226 0 -293
45 -169 166 -276 343 -303 136 -21 293 17 378 92 47 42 113 155 97 169 -4 3
-55 9 -114 13 l-108 6 -15 -29 c-37 -73 -188 -94 -272 -39 -43 29 -72 79 -80
139 l-6 39 302 0 301 0 0 83 c-1 304 -220 485 -520 426z m200 -194 c46 -24 90
-92 90 -140 l0 -25 -185 0 c-180 0 -185 1 -185 20 0 55 73 144 128 156 15 3
32 7 37 9 17 6 88 -7 115 -20z"/>
<path d="M3625 1378 c12 -46 66 -246 120 -445 l99 -363 130 0 131 0 69 258
c73 271 84 307 91 301 3 -4 105 -367 145 -517 l11 -43 131 3 131 3 118 435
c65 239 119 438 119 443 0 4 -55 7 -123 7 l-122 0 -64 -282 c-35 -156 -67
-290 -71 -297 -10 -18 -10 -19 -91 318 l-63 261 -122 0 -122 0 -62 -257 c-34
-142 -67 -278 -72 -302 -7 -28 -14 -38 -18 -30 -4 8 -33 127 -65 264 -31 138
-61 267 -66 288 l-10 37 -123 0 -124 0 23 -82z"/>
<path d="M5000 1015 l0 -445 120 0 120 0 0 445 0 445 -120 0 -120 0 0 -445z"/>
</g>
</svg>
